<svg id="Layer_1" data-name="Layer 1" xmlns="http://www.w3.org/2000/svg" viewBox="0 0 32 32"><defs><style>.cls-1{fill:#3346d3;}</style></defs><path class="cls-1" d="M11.93,26.5l2,1.15c.35.2.7.39,1,.61a.4.4,0,0,1,.18.25c0,1.14,0,2.27,0,3.48-.78-.1-1.51-.18-2.24-.31-1-.17-1-.19-1-1.21Z"/><path class="cls-1" d="M32.06,16.68c-.1.72-.16,1.45-.29,2.17A16,16,0,0,1,18,31.87c-.34,0-.68.06-1.06.09v-.42c0-4.91,0-9.82,0-14.72a.48.48,0,0,1,.28-.5l13-7.53.15-.06,1.17,3-2.4,1.4c-2.89,1.66-5.77,3.33-8.66,5a.61.61,0,0,0-.35.61c0,3,0,5.91,0,8.87V28c2.52-.13,7.26-4.77,7.88-7.75l-5.52,3.18c0-1.07,0-2.08,0-3.09a.91.91,0,0,1,.54-1c2.88-1.63,5.73-3.3,8.6-5l.31-.17.13,1.06Z"/><path class="cls-1" d="M0,15.54c.07-.66.12-1.33.22-2a15.4,15.4,0,0,1,1.54-4.8l.7.4,12.43,7.18c.15.08.28.15.28.38,0,3,0,6,0,9l-.26-.12C14,25,13.09,24.5,12.17,24a.44.44,0,0,1-.25-.45c0-1.6,0-3.21,0-4.82a.56.56,0,0,0-.34-.57c-.59-.32-1.15-.66-1.73-1L9.56,17V30.61a2,2,0,0,1-.35-.15L6.56,28.89a.54.54,0,0,1-.26-.53c0-4.29,0-8.58,0-12.87a.58.58,0,0,0-.35-.6c-.81-.44-1.6-.91-2.44-1.4a12.93,12.93,0,0,0,.11,5.57l-.53-.31c-.88-.5-1.76-1-2.64-1.51-.27-.15-.47-.3-.42-.64a.52.52,0,0,0,0-.21Z"/><path class="cls-1" d="M29.47,7.22,27.29,8.49q-5.52,3.16-11,6.35a.37.37,0,0,1-.44,0L2.77,7.32l-.16-.11C5.85,2.64,10.19.07,15.81,0,21.61-.07,26.1,2.5,29.47,7.22Zm-5-.82a12.6,12.6,0,0,0-16.74,0s0,0,.05,0c2.71,1.56,5.41,3.13,8.13,4.68a.44.44,0,0,0,.4,0C17.52,10.39,18.76,9.67,20,9Z"/><path class="cls-1" d="M.52,19.92l3.35,1.94a.3.3,0,0,1,.13.23C4,23.54,4,25,4,26.54A16,16,0,0,1,.52,19.92Z"/></svg>